<svg xmlns="http://www.w3.org/2000/svg" width="20" height="20" fill="none" viewBox="0 0 20 20"><path fill="url(#a)" d="M3 4.5A1.5 1.5 0 0 1 4.5 3h4A1.5 1.5 0 0 1 10 4.5V10H3z"/><path fill="url(#b)" d="M3 10h7v7H4.5A1.5 1.5 0 0 1 3 15.5z"/><path fill="url(#c)" fill-opacity=".8" d="M3 10h7v7H4.5A1.5 1.5 0 0 1 3 15.5z"/><path fill="url(#d)" d="M10 10h5.5a1.5 1.5 0 0 1 1.5 1.5v4a1.5 1.5 0 0 1-1.5 1.5H10z"/><path fill="url(#e)" fill-opacity=".6" d="M10 10h5.5a1.5 1.5 0 0 1 1.5 1.5v4a1.5 1.5 0 0 1-1.5 1.5H10z"/><path fill="url(#f)" d="M12.732 2.44a1.5 1.5 0 0 1 2.121 0l2.693 2.693a1.5 1.5 0 0 1 0 2.121l-2.693 2.693a1.5 1.5 0 0 1-2.121 0L10.04 7.254a1.5 1.5 0 0 1 0-2.12z"/><path fill="url(#g)" d="M12.732 2.44a1.5 1.5 0 0 1 2.121 0l2.693 2.693a1.5 1.5 0 0 1 0 2.121l-2.693 2.693a1.5 1.5 0 0 1-2.121 0L10.04 7.254a1.5 1.5 0 0 1 0-2.12z"/><defs><linearGradient id="a" x1="3.368" x2="19.15" y1="2.611" y2="22.794" gradientUnits="userSpaceOnUse"><stop offset=".083" stop-color="#ffc470"/><stop offset=".28" stop-color="#ff835c"/><stop offset=".584" stop-color="#f24a9d"/><stop offset=".871" stop-color="#b339f0"/><stop offset="1" stop-color="#c354ff"/></linearGradient><linearGradient id="b" x1="2.632" x2="16.184" y1="4.105" y2="16.267" gradientUnits="userSpaceOnUse"><stop stop-color="#ffc470"/><stop offset=".251" stop-color="#ff835c"/><stop offset=".519" stop-color="#f24a9d"/><stop offset=".871" stop-color="#b339f0"/><stop offset="1" stop-color="#c354ff"/></linearGradient><linearGradient id="c" x1="6.5" x2="6.5" y1="18.118" y2="9.028" gradientUnits="userSpaceOnUse"><stop stop-color="#fea567" stop-opacity="0"/><stop offset=".921" stop-color="#ca2134"/></linearGradient><linearGradient id="d" x1="2.611" x2="17.326" y1="3.737" y2="16.94" gradientUnits="userSpaceOnUse"><stop stop-color="#ffc470"/><stop offset=".677" stop-color="#cf40ca"/><stop offset=".955" stop-color="#b339f0"/></linearGradient><linearGradient id="e" x1="21.569" x2="10" y1="13.5" y2="13.5" gradientUnits="userSpaceOnUse"><stop offset=".416" stop-color="#a931d8" stop-opacity="0"/><stop offset="1" stop-color="#82027a"/></linearGradient><linearGradient id="f" x1="10.012" x2="18.65" y1="2.551" y2="10.956" gradientUnits="userSpaceOnUse"><stop offset=".195" stop-color="#8b52f4"/><stop offset=".691" stop-color="#6d37cd"/></linearGradient><linearGradient id="g" x1="14.22" x2="5.314" y1="3.859" y2="3.859" gradientUnits="userSpaceOnUse"><stop stop-color="#f24a9d" stop-opacity="0"/><stop offset="1" stop-color="#f24a9d"/></linearGradient></defs></svg>