<svg viewBox="0 0 28 28" fill="none" xmlns="http://www.w3.org/2000/svg">
<g clip-path="url(#clip0_2461_17675)">
<mask id="mask0_2461_17675" style="mask-type:alpha" maskUnits="userSpaceOnUse" x="0" y="0" width="28" height="28">
<path d="M19.0921 0C23.3508 0 26.8437 3.26845 27.2045 7.43359C27.2269 7.65475 27.2377 7.87936 27.2377 8.10645V21.4209C27.2377 25.0544 24.292 28 20.6586 28H7.3441C3.71067 27.9999 0.765 25.0543 0.764999 21.4209V8.10645C0.764999 4.473 3.71067 1.52741 7.3441 1.52734H14.347C15.6835 0.567384 17.3211 2.69882e-05 19.0921 0Z" fill="#D9D9D9"/>
<path d="M19.0921 0C23.3508 0 26.8437 3.26845 27.2045 7.43359C27.2269 7.65475 27.2377 7.87936 27.2377 8.10645V21.4209C27.2377 25.0544 24.292 28 20.6586 28H7.3441C3.71067 27.9999 0.765 25.0543 0.764999 21.4209V8.10645C0.764999 4.473 3.71067 1.52741 7.3441 1.52734H14.347C15.6835 0.567384 17.3211 2.69882e-05 19.0921 0Z" fill="url(#paint0_linear_2461_17675)"/>
<path d="M19.0921 0C23.3508 0 26.8437 3.26845 27.2045 7.43359C27.2269 7.65475 27.2377 7.87936 27.2377 8.10645V21.4209C27.2377 25.0544 24.292 28 20.6586 28H7.3441C3.71067 27.9999 0.765 25.0543 0.764999 21.4209V8.10645C0.764999 4.473 3.71067 1.52741 7.3441 1.52734H14.347C15.6835 0.567384 17.3211 2.69882e-05 19.0921 0Z" fill="url(#paint1_linear_2461_17675)"/>
<path d="M19.0921 0C23.3508 0 26.8437 3.26845 27.2045 7.43359C27.2269 7.65475 27.2377 7.87936 27.2377 8.10645V21.4209C27.2377 25.0544 24.292 28 20.6586 28H7.3441C3.71067 27.9999 0.765 25.0543 0.764999 21.4209V8.10645C0.764999 4.473 3.71067 1.52741 7.3441 1.52734H14.347C15.6835 0.567384 17.3211 2.69882e-05 19.0921 0Z" fill="url(#paint2_linear_2461_17675)"/>
<path d="M19.0921 0C23.3508 0 26.8437 3.26845 27.2045 7.43359C27.2269 7.65475 27.2377 7.87936 27.2377 8.10645V21.4209C27.2377 25.0544 24.292 28 20.6586 28H7.3441C3.71067 27.9999 0.765 25.0543 0.764999 21.4209V8.10645C0.764999 4.473 3.71067 1.52741 7.3441 1.52734H14.347C15.6835 0.567384 17.3211 2.69882e-05 19.0921 0Z" fill="url(#paint3_linear_2461_17675)"/>
</mask>
<g mask="url(#mask0_2461_17675)">
<path d="M0.765021 21.4213C0.765027 25.0548 3.71054 28.0003 7.34402 28.0003L20.6587 28.0003C24.2922 28.0003 27.2377 25.0548 27.2377 21.4213L27.2377 8.10658C27.2377 4.4731 24.2922 1.52759 20.6587 1.52759L7.34401 1.52759C3.71052 1.52759 0.764994 4.47312 0.764999 8.10661L0.765021 21.4213Z" fill="url(#paint4_linear_2461_17675)"/>
<path d="M0.765021 21.4213C0.765027 25.0548 3.71054 28.0003 7.34402 28.0003L20.6587 28.0003C24.2922 28.0003 27.2377 25.0548 27.2377 21.4213L27.2377 8.10658C27.2377 4.4731 24.2922 1.52759 20.6587 1.52759L7.34401 1.52759C3.71052 1.52759 0.764994 4.47312 0.764999 8.10661L0.765021 21.4213Z" fill="url(#paint5_linear_2461_17675)"/>
<path d="M0.765021 21.4213C0.765027 25.0548 3.71054 28.0003 7.34402 28.0003L20.6587 28.0003C24.2922 28.0003 27.2377 25.0548 27.2377 21.4213L27.2377 8.10658C27.2377 4.4731 24.2922 1.52759 20.6587 1.52759L7.34401 1.52759C3.71052 1.52759 0.764994 4.47312 0.764999 8.10661L0.765021 21.4213Z" fill="url(#paint6_linear_2461_17675)" fill-opacity="0.78"/>
<g filter="url(#filter0_dd_2461_17675)">
<g filter="url(#filter1_dddd_2461_17675)">
<circle cx="19.0923" cy="8.14545" r="8.14545" fill="#D9D9D9"/>
<circle cx="19.0923" cy="8.14545" r="8.14545" fill="url(#paint7_linear_2461_17675)"/>
<circle cx="19.0923" cy="8.14545" r="8.14545" fill="url(#paint8_linear_2461_17675)"/>
<circle cx="19.0923" cy="8.14545" r="8.14545" fill="url(#paint9_linear_2461_17675)"/>
<circle cx="19.0923" cy="8.14545" r="8.14545" fill="url(#paint10_linear_2461_17675)"/>
</g>
<g filter="url(#filter2_d_2461_17675)">
<path d="M3.2269 15.1173C2.35092 13.6 2.87077 11.6599 4.38801 10.7839L12.6297 6.02562C14.1469 5.14964 16.087 5.66949 16.963 7.18673L21.7213 15.4284C22.5973 16.9456 22.0774 18.8857 20.5602 19.7617L12.3185 24.52C10.8013 25.396 8.8612 24.8762 7.98522 23.3589L3.2269 15.1173Z" fill="url(#paint11_linear_2461_17675)"/>
</g>
<path opacity="0.4" d="M27.2377 8.14545C27.2377 12.6441 23.5909 16.2909 19.0923 16.2909C14.5937 16.2909 10.9468 12.6441 10.9468 8.14545C10.9468 3.64684 14.5937 0 19.0923 0C23.5909 0 27.2377 3.64684 27.2377 8.14545Z" fill="url(#paint12_radial_2461_17675)"/>
</g>
<g filter="url(#filter3_dd_2461_17675)">
<path d="M7.34418 28C3.71069 28 0.765076 25.0544 0.765076 21.4209V13.2754C0.765083 16.9089 3.71069 19.8545 7.34418 19.8545H20.6586C24.2921 19.8545 27.2377 16.9089 27.2377 13.2754V21.4209C27.2377 25.0544 24.2921 28 20.6586 28H7.34418Z" fill="url(#paint13_linear_2461_17675)"/>
</g>
</g>
</g>
<defs>
<filter id="filter0_dd_2461_17675" x="-0.172005" y="-2.23004" width="30.3831" height="30.8923" filterUnits="userSpaceOnUse" color-interpolation-filters="sRGB">
<feFlood flood-opacity="0" result="BackgroundImageFix"/>
<feColorMatrix in="SourceAlpha" type="matrix" values="0 0 0 0 0 0 0 0 0 0 0 0 0 0 0 0 0 0 127 0" result="hardAlpha"/>
<feOffset dy="0.148669"/>
<feGaussianBlur stdDeviation="0.148669"/>
<feColorMatrix type="matrix" values="0 0 0 0 0.0901961 0 0 0 0 0.0666667 0 0 0 0 0.333333 0 0 0 0.24 0"/>
<feBlend mode="normal" in2="BackgroundImageFix" result="effect1_dropShadow_2461_17675"/>
<feColorMatrix in="SourceAlpha" type="matrix" values="0 0 0 0 0 0 0 0 0 0 0 0 0 0 0 0 0 0 127 0" result="hardAlpha"/>
<feOffset dy="0.743345"/>
<feGaussianBlur stdDeviation="1.48669"/>
<feColorMatrix type="matrix" values="0 0 0 0 0.0901961 0 0 0 0 0.0666667 0 0 0 0 0.333333 0 0 0 0.32 0"/>
<feBlend mode="normal" in2="effect1_dropShadow_2461_17675" result="effect2_dropShadow_2461_17675"/>
<feBlend mode="normal" in="SourceGraphic" in2="effect2_dropShadow_2461_17675" result="shape"/>
</filter>
<filter id="filter1_dddd_2461_17675" x="8.00176" y="-2.2088" width="22.181" height="22.1812" filterUnits="userSpaceOnUse" color-interpolation-filters="sRGB">
<feFlood flood-opacity="0" result="BackgroundImageFix"/>
<feColorMatrix in="SourceAlpha" type="matrix" values="0 0 0 0 0 0 0 0 0 0 0 0 0 0 0 0 0 0 127 0" result="hardAlpha"/>
<feOffset dy="0.147253"/>
<feGaussianBlur stdDeviation="0.147253"/>
<feColorMatrix type="matrix" values="0 0 0 0 0.0901961 0 0 0 0 0.0666667 0 0 0 0 0.333333 0 0 0 0.24 0"/>
<feBlend mode="normal" in2="BackgroundImageFix" result="effect1_dropShadow_2461_17675"/>
<feColorMatrix in="SourceAlpha" type="matrix" values="0 0 0 0 0 0 0 0 0 0 0 0 0 0 0 0 0 0 127 0" result="hardAlpha"/>
<feOffset dy="0.736267"/>
<feGaussianBlur stdDeviation="1.47253"/>
<feColorMatrix type="matrix" values="0 0 0 0 0.0901961 0 0 0 0 0.0666667 0 0 0 0 0.333333 0 0 0 0.32 0"/>
<feBlend mode="normal" in2="effect1_dropShadow_2461_17675" result="effect2_dropShadow_2461_17675"/>
<feColorMatrix in="SourceAlpha" type="matrix" values="0 0 0 0 0 0 0 0 0 0 0 0 0 0 0 0 0 0 127 0" result="hardAlpha"/>
<feOffset dy="0.147253"/>
<feGaussianBlur stdDeviation="0.147253"/>
<feColorMatrix type="matrix" values="0 0 0 0 0.0901961 0 0 0 0 0.0666667 0 0 0 0 0.333333 0 0 0 0.24 0"/>
<feBlend mode="normal" in2="effect2_dropShadow_2461_17675" result="effect3_dropShadow_2461_17675"/>
<feColorMatrix in="SourceAlpha" type="matrix" values="0 0 0 0 0 0 0 0 0 0 0 0 0 0 0 0 0 0 127 0" result="hardAlpha"/>
<feOffset dy="0.736267"/>
<feGaussianBlur stdDeviation="1.47253"/>
<feColorMatrix type="matrix" values="0 0 0 0 0.0901961 0 0 0 0 0.0666667 0 0 0 0 0.333333 0 0 0 0.32 0"/>
<feBlend mode="normal" in2="effect3_dropShadow_2461_17675" result="effect4_dropShadow_2461_17675"/>
<feBlend mode="normal" in="SourceGraphic" in2="effect4_dropShadow_2461_17675" result="shape"/>
</filter>
<filter id="filter2_d_2461_17675" x="-0.0659835" y="3.44958" width="25.0802" height="25.0802" filterUnits="userSpaceOnUse" color-interpolation-filters="sRGB">
<feFlood flood-opacity="0" result="BackgroundImageFix"/>
<feColorMatrix in="SourceAlpha" type="matrix" values="0 0 0 0 0 0 0 0 0 0 0 0 0 0 0 0 0 0 127 0" result="hardAlpha"/>
<feOffset dy="0.71684"/>
<feGaussianBlur stdDeviation="1.43368"/>
<feColorMatrix type="matrix" values="0 0 0 0 0.439216 0 0 0 0 0.0627451 0 0 0 0 0.105882 0 0 0 0.32 0"/>
<feBlend mode="normal" in2="BackgroundImageFix" result="effect1_dropShadow_2461_17675"/>
<feBlend mode="normal" in="SourceGraphic" in2="effect1_dropShadow_2461_17675" result="shape"/>
</filter>
<filter id="filter3_dd_2461_17675" x="-0.879677" y="11.3565" width="29.7622" height="18.0141" filterUnits="userSpaceOnUse" color-interpolation-filters="sRGB">
<feFlood flood-opacity="0" result="BackgroundImageFix"/>
<feColorMatrix in="SourceAlpha" type="matrix" values="0 0 0 0 0 0 0 0 0 0 0 0 0 0 0 0 0 0 127 0" result="hardAlpha"/>
<feOffset dy="0.274125"/>
<feGaussianBlur stdDeviation="0.274125"/>
<feColorMatrix type="matrix" values="0 0 0 0 0.337255 0 0 0 0 0.0431373 0 0 0 0 0.0784314 0 0 0 0.35 0"/>
<feBlend mode="normal" in2="BackgroundImageFix" result="effect1_dropShadow_2461_17675"/>
<feColorMatrix in="SourceAlpha" type="matrix" values="0 0 0 0 0 0 0 0 0 0 0 0 0 0 0 0 0 0 127 0" result="hardAlpha"/>
<feOffset dy="-0.274125"/>
<feGaussianBlur stdDeviation="0.822376"/>
<feColorMatrix type="matrix" values="0 0 0 0 0.439216 0 0 0 0 0.0627451 0 0 0 0 0.105882 0 0 0 0.35 0"/>
<feBlend mode="normal" in2="effect1_dropShadow_2461_17675" result="effect2_dropShadow_2461_17675"/>
<feBlend mode="normal" in="SourceGraphic" in2="effect2_dropShadow_2461_17675" result="shape"/>
</filter>
<linearGradient id="paint0_linear_2461_17675" x1="2.02889" y1="-12.0901" x2="23.9559" y2="16.9265" gradientUnits="userSpaceOnUse">
<stop stop-color="#FFCD0F"/>
<stop offset="1" stop-color="#FE8401"/>
</linearGradient>
<linearGradient id="paint1_linear_2461_17675" x1="9.65584" y1="-3.12259" x2="27.5872" y2="15.1783" gradientUnits="userSpaceOnUse">
<stop stop-color="#0FAFFF"/>
<stop offset="1" stop-color="#2764E7"/>
</linearGradient>
<linearGradient id="paint2_linear_2461_17675" x1="22.1993" y1="-3.12259" x2="6.63861" y2="-3.16642" gradientUnits="userSpaceOnUse">
<stop stop-color="#C03BC4"/>
<stop offset="0.37341" stop-color="#E03F8F"/>
<stop offset="1" stop-color="#FF9766"/>
</linearGradient>
<linearGradient id="paint3_linear_2461_17675" x1="18.2997" y1="-27.4992" x2="18.2997" y2="9.54157" gradientUnits="userSpaceOnUse">
<stop stop-color="#FFBF70"/>
<stop offset="0.565756" stop-color="#FF9766"/>
<stop offset="1" stop-color="#FA6673"/>
</linearGradient>
<linearGradient id="paint4_linear_2461_17675" x1="19.5566" y1="28.6129" x2="15.4452" y2="-1.90065" gradientUnits="userSpaceOnUse">
<stop stop-color="#2052CA"/>
<stop offset="1" stop-color="#6D37CD"/>
</linearGradient>
<linearGradient id="paint5_linear_2461_17675" x1="19.5566" y1="28.6129" x2="15.7838" y2="0.61224" gradientUnits="userSpaceOnUse">
<stop stop-color="#2052CA" stop-opacity="0"/>
<stop offset="1" stop-color="#9529C1"/>
</linearGradient>
<linearGradient id="paint6_linear_2461_17675" x1="14.0014" y1="16.4143" x2="14.0014" y2="20.2521" gradientUnits="userSpaceOnUse">
<stop stop-color="#1F005C" stop-opacity="0"/>
<stop offset="1" stop-color="#330060"/>
</linearGradient>
<linearGradient id="paint7_linear_2461_17675" x1="4.15894" y1="-8.14545" x2="24.1832" y2="17.8182" gradientUnits="userSpaceOnUse">
<stop stop-color="#FFCD0F"/>
<stop offset="1" stop-color="#FE8401"/>
</linearGradient>
<linearGradient id="paint8_linear_2461_17675" x1="10.9468" y1="0" x2="27.2377" y2="16.2909" gradientUnits="userSpaceOnUse">
<stop stop-color="#0FAFFF"/>
<stop offset="1" stop-color="#2764E7"/>
</linearGradient>
<linearGradient id="paint9_linear_2461_17675" x1="22.1104" y1="-4.62766e-07" x2="8.26153" y2="-0.0382199" gradientUnits="userSpaceOnUse">
<stop stop-color="#C03BC4"/>
<stop offset="0.37341" stop-color="#E03F8F"/>
<stop offset="1" stop-color="#FF9766"/>
</linearGradient>
<linearGradient id="paint10_linear_2461_17675" x1="18.6398" y1="-22.1419" x2="18.6398" y2="11.5032" gradientUnits="userSpaceOnUse">
<stop stop-color="#FFBF70"/>
<stop offset="0.565756" stop-color="#FF9766"/>
<stop offset="1" stop-color="#FA6673"/>
</linearGradient>
<linearGradient id="paint11_linear_2461_17675" x1="9.59818" y1="16.5042" x2="19.1961" y2="10.9629" gradientUnits="userSpaceOnUse">
<stop stop-color="#FFB151"/>
<stop offset="1" stop-color="#FFD198"/>
</linearGradient>
<radialGradient id="paint12_radial_2461_17675" cx="0" cy="0" r="1" gradientUnits="userSpaceOnUse" gradientTransform="translate(24.7941 2.95272) rotate(135) scale(15.9352)">
<stop stop-color="#FFBF70"/>
<stop offset="0.565756" stop-color="#FF9766"/>
<stop offset="1" stop-color="#FA6673"/>
</radialGradient>
<linearGradient id="paint13_linear_2461_17675" x1="2.06062" y1="17.4686" x2="26.7377" y2="17.5883" gradientUnits="userSpaceOnUse">
<stop stop-color="#C03BC4"/>
<stop offset="0.63418" stop-color="#E03F8F"/>
<stop offset="1" stop-color="#FF9766"/>
</linearGradient>
<clipPath id="clip0_2461_17675">
<rect width="28" height="28" fill="white"/>
</clipPath>
</defs>
</svg>
