<svg width="24" height="25" viewBox="0 0 24 25" fill="none" xmlns="http://www.w3.org/2000/svg">
<mask id="mask0_29473_80646" style="mask-type:alpha" maskUnits="userSpaceOnUse" x="0" y="3" width="24" height="21">
<path fill-rule="evenodd" clip-rule="evenodd" d="M11.2243 4.94748C8.67002 2.39316 4.52865 2.39316 1.97433 4.94748C-0.579985 7.50179 -0.579986 11.6432 1.97433 14.1975L9.03691 21.2601C8.92912 21.1523 8.82727 21.0504 8.7311 20.9536L9.18907 21.4116L9.18908 21.4116C10.1791 22.4016 10.6741 22.8967 11.245 23.0821C11.7471 23.2453 12.2879 23.2453 12.79 23.0821C13.3609 22.8967 13.8559 22.4016 14.8459 21.4116L22.0601 14.1975C24.6144 11.6432 24.6144 7.50179 22.0601 4.94747C19.5057 2.39316 15.3644 2.39316 12.8101 4.94748L11.9939 5.7636C11.8729 5.61284 11.7428 5.46696 11.6035 5.32672L11.5717 5.29489L11.2243 4.94748Z" fill="url(#paint0_radial_29473_80646)"/>
<path fill-rule="evenodd" clip-rule="evenodd" d="M11.2243 4.94748C8.67002 2.39316 4.52865 2.39316 1.97433 4.94748C-0.579985 7.50179 -0.579986 11.6432 1.97433 14.1975L9.03691 21.2601C8.92912 21.1523 8.82727 21.0504 8.7311 20.9536L9.18907 21.4116L9.18908 21.4116C10.1791 22.4016 10.6741 22.8967 11.245 23.0821C11.7471 23.2453 12.2879 23.2453 12.79 23.0821C13.3609 22.8967 13.8559 22.4016 14.8459 21.4116L22.0601 14.1975C24.6144 11.6432 24.6144 7.50179 22.0601 4.94747C19.5057 2.39316 15.3644 2.39316 12.8101 4.94748L11.9939 5.7636C11.8729 5.61284 11.7428 5.46696 11.6035 5.32672L11.5717 5.29489L11.2243 4.94748Z" fill="url(#paint1_radial_29473_80646)"/>
<path fill-rule="evenodd" clip-rule="evenodd" d="M11.2243 4.94748C8.67002 2.39316 4.52865 2.39316 1.97433 4.94748C-0.579985 7.50179 -0.579986 11.6432 1.97433 14.1975L9.03691 21.2601C8.92912 21.1523 8.82727 21.0504 8.7311 20.9536L9.18907 21.4116L9.18908 21.4116C10.1791 22.4016 10.6741 22.8967 11.245 23.0821C11.7471 23.2453 12.2879 23.2453 12.79 23.0821C13.3609 22.8967 13.8559 22.4016 14.8459 21.4116L22.0601 14.1975C24.6144 11.6432 24.6144 7.50179 22.0601 4.94747C19.5057 2.39316 15.3644 2.39316 12.8101 4.94748L11.9939 5.7636C11.8729 5.61284 11.7428 5.46696 11.6035 5.32672L11.5717 5.29489L11.2243 4.94748Z" fill="black"/>
</mask>
<g mask="url(#mask0_29473_80646)">
<path d="M12.8105 4.94727C15.3649 2.39295 19.5062 2.39295 22.0605 4.94726C24.6149 7.50158 24.6149 11.6429 22.0605 14.1973L14.8464 21.4114C13.8564 22.4014 13.3614 22.8965 12.7905 23.0819C12.2884 23.2451 11.7476 23.2451 11.2454 23.0819C10.6746 22.8965 10.1796 22.4014 9.18956 21.4114L2.76799 14.9898L12.8105 4.94727Z" fill="url(#paint2_linear_29473_80646)"/>
<g filter="url(#filter0_dd_29473_80646)">
<path d="M1.97461 4.94727C4.52893 2.39295 8.67029 2.39295 11.2246 4.94727L11.572 5.29468C11.5886 5.31122 11.5968 5.31949 11.6038 5.32651C13.7331 7.47114 13.7331 10.932 11.6038 13.0767C11.5968 13.0837 11.5886 13.0919 11.572 13.1085L9.05735 15.6232C8.06731 16.6132 7.57229 17.1082 7.38682 17.679C7.22367 18.1811 7.22367 18.722 7.38682 19.2241C7.57229 19.7949 8.06731 20.29 9.05735 21.28L12 24.2227L1.97461 14.1973C-0.57971 11.6429 -0.579708 7.50158 1.97461 4.94727Z" fill="url(#paint3_linear_29473_80646)"/>
<path d="M1.97461 4.94727C4.52893 2.39295 8.67029 2.39295 11.2246 4.94727L11.572 5.29468C11.5886 5.31122 11.5968 5.31949 11.6038 5.32651C13.7331 7.47114 13.7331 10.932 11.6038 13.0767C11.5968 13.0837 11.5886 13.0919 11.572 13.1085L9.05735 15.6232C8.06731 16.6132 7.57229 17.1082 7.38682 17.679C7.22367 18.1811 7.22367 18.722 7.38682 19.2241C7.57229 19.7949 8.06731 20.29 9.05735 21.28L12 24.2227L1.97461 14.1973C-0.57971 11.6429 -0.579708 7.50158 1.97461 4.94727Z" fill="url(#paint4_linear_29473_80646)"/>
</g>
</g>
<defs>
<filter id="filter0_dd_29473_80646" x="-1.94092" y="1.53174" width="17.1416" height="25.1909" filterUnits="userSpaceOnUse" color-interpolation-filters="sRGB">
<feFlood flood-opacity="0" result="BackgroundImageFix"/>
<feColorMatrix in="SourceAlpha" type="matrix" values="0 0 0 0 0 0 0 0 0 0 0 0 0 0 0 0 0 0 127 0" result="hardAlpha"/>
<feOffset dy="0.1"/>
<feGaussianBlur stdDeviation="0.1"/>
<feColorMatrix type="matrix" values="0 0 0 0 0 0 0 0 0 0 0 0 0 0 0 0 0 0 0.24 0"/>
<feBlend mode="normal" in2="BackgroundImageFix" result="effect1_dropShadow_29473_80646"/>
<feColorMatrix in="SourceAlpha" type="matrix" values="0 0 0 0 0 0 0 0 0 0 0 0 0 0 0 0 0 0 127 0" result="hardAlpha"/>
<feOffset dy="0.5"/>
<feGaussianBlur stdDeviation="1"/>
<feColorMatrix type="matrix" values="0 0 0 0 0 0 0 0 0 0 0 0 0 0 0 0 0 0 0.32 0"/>
<feBlend mode="normal" in2="effect1_dropShadow_29473_80646" result="effect2_dropShadow_29473_80646"/>
<feBlend mode="normal" in="SourceGraphic" in2="effect2_dropShadow_29473_80646" result="shape"/>
</filter>
<radialGradient id="paint0_radial_29473_80646" cx="0" cy="0" r="1" gradientUnits="userSpaceOnUse" gradientTransform="translate(-1.57213 13.0724) rotate(31.0346) scale(7.51617 10.7975)">
<stop/>
<stop offset="1" stop-opacity="0"/>
</radialGradient>
<radialGradient id="paint1_radial_29473_80646" cx="0" cy="0" r="1" gradientUnits="userSpaceOnUse" gradientTransform="translate(1.648 10.3224) rotate(56.4466) scale(6.14972 7.42527)">
<stop/>
<stop offset="1" stop-opacity="0"/>
</radialGradient>
<linearGradient id="paint2_linear_29473_80646" x1="22.6252" y1="5.82226" x2="1.51266" y2="25.129" gradientUnits="userSpaceOnUse">
<stop stop-color="#5E58C7"/>
<stop offset="1" stop-color="#16BFDF"/>
</linearGradient>
<linearGradient id="paint3_linear_29473_80646" x1="2.37501" y1="14.1973" x2="11.5797" y2="3.51217" gradientUnits="userSpaceOnUse">
<stop stop-color="#16BFDF"/>
<stop offset="1" stop-color="#3EE5C9"/>
</linearGradient>
<linearGradient id="paint4_linear_29473_80646" x1="6.12501" y1="10.4473" x2="12.4533" y2="3.10128" gradientUnits="userSpaceOnUse">
<stop stop-color="#3EE5C9" stop-opacity="0"/>
<stop offset="1" stop-color="#9BF3AF"/>
</linearGradient>
</defs>
</svg>
